# xmcd
#
# Track frame offsets: 
#        150
#        17300
#        33484
#        48033
#        63568
#        78373
#        97377
#        114258
#        131245
#        148439
#        163685
#        181331
#        199711
#        218085
#
# Disc length: 3153 seconds
#
# Revision: 3
# Processed by: cddbd v1.5.2PL0 Copyright (c) Steve Scherf et al.
# Submitted via: ExactAudioCopy v0.99pb5
#
DISCID=c60c4f0e
DTITLE=Jennifer Lopez - A.K.A.
DYEAR=2014
DGENRE=Latin Pop
TTITLE0=A.K.A. (feat. T.I.)
TTITLE1=First Love
TTITLE2=Never Satisfied
TTITLE3=I Luh Ya Papi (feat. French Montana)
TTITLE4=Acting Like That (feat. Iggy Azalea)
TTITLE5=Emotions
TTITLE6=So Good
TTITLE7=Let It Be Me
TTITLE8=Worry No More (feat. Rick Ross)
TTITLE9=Booty (feat. Pitbull)
TTITLE10=Tens (feat. Jack Mizrahi)
TTITLE11=Troubeaux (feat. Nas)
TTITLE12=Expertease (Ready Set Go)
TTITLE13=Same Girl (feat. French Montana)
EXTD=
EXTT0=
EXTT1=
EXTT2=
EXTT3=
EXTT4=
EXTT5=
EXTT6=
EXTT7=
EXTT8=
EXTT9=
EXTT10=
EXTT11=
EXTT12=
EXTT13=
PLAYORDER=
